<svg data-v-1084b650="" xmlns="http://www.w3.org/2000/svg" viewBox="0 0 300 300"><!----> <!----> <rect data-v-1084b650="" fill="#FFFFFF" x="0" y="0" width="300px" height="300px" class="logo-background-square"></rect> <!----> <g data-v-1084b650="" id="caa003ff-8355-ce49-6746-6245f3dd73b9" fill="#000000" transform="matrix(2.5,0,0,2.5,119.69430541992188,131.1875)"><path d="M1.12 2.80L1.12 12.60L2.31 12.60L2.31 8.68L3.54 8.68L6.23 12.60L7.70 12.60L4.91 8.53C5.59 8.34 6.12 8.00 6.52 7.52C6.91 7.03 7.11 6.44 7.11 5.74C7.11 4.85 6.80 4.14 6.17 3.60C5.54 3.07 4.74 2.80 3.78 2.80ZM2.31 3.92L3.78 3.92C4.43 3.92 4.95 4.08 5.34 4.39C5.73 4.70 5.92 5.15 5.92 5.74C5.92 6.33 5.73 6.78 5.34 7.09C4.95 7.40 4.43 7.56 3.78 7.56L2.31 7.56ZM8.75 3.50C8.75 3.71 8.83 3.88 8.98 4.04C9.13 4.19 9.31 4.27 9.52 4.27C9.73 4.27 9.91 4.19 10.06 4.04C10.21 3.88 10.29 3.71 10.29 3.50C10.29 3.29 10.21 3.12 10.06 2.96C9.91 2.81 9.73 2.73 9.52 2.73C9.31 2.73 9.13 2.81 8.98 2.96C8.83 3.12 8.75 3.29 8.75 3.50ZM8.96 6.16L8.96 12.60L10.08 12.60L10.08 6.16ZM12.46 2.80L12.46 12.60L13.65 12.60L13.65 8.68L15.12 8.68C16.08 8.68 16.88 8.41 17.51 7.87C18.14 7.34 18.45 6.63 18.45 5.74C18.45 4.85 18.14 4.14 17.51 3.60C16.88 3.07 16.08 2.80 15.12 2.80ZM13.65 3.92L15.12 3.92C15.77 3.92 16.29 4.08 16.68 4.39C17.07 4.70 17.26 5.15 17.26 5.74C17.26 6.33 17.07 6.78 16.68 7.09C16.29 7.40 15.77 7.56 15.12 7.56L13.65 7.56ZM20.47 9.44L19.46 10.04C19.78 10.86 20.24 11.52 20.86 12.00C21.48 12.49 22.18 12.74 22.96 12.74C23.91 12.74 24.65 12.49 25.16 11.98C25.68 11.47 25.94 10.79 25.94 9.94C25.94 8.62 25.12 7.66 23.46 7.06C23.08 6.92 22.79 6.80 22.59 6.71C22.39 6.61 22.16 6.49 21.91 6.33C21.66 6.17 21.48 5.99 21.36 5.80C21.25 5.60 21.20 5.38 21.20 5.12C21.20 4.24 21.73 3.79 22.81 3.79C23.29 3.79 23.69 3.94 24.00 4.23C24.30 4.52 24.59 4.91 24.85 5.40L25.82 4.76C25.59 4.20 25.21 3.71 24.68 3.29C24.15 2.87 23.52 2.66 22.79 2.66C21.99 2.66 21.31 2.89 20.77 3.35C20.22 3.80 19.95 4.37 19.95 5.04C19.95 6.34 20.77 7.28 22.41 7.87C22.76 7.99 23.04 8.10 23.26 8.21C23.48 8.32 23.72 8.46 23.97 8.62C24.22 8.79 24.41 8.99 24.53 9.23C24.65 9.47 24.71 9.74 24.71 10.04C24.71 10.53 24.57 10.92 24.28 11.20C24.00 11.48 23.58 11.62 23.03 11.62C22.45 11.62 21.96 11.43 21.55 11.06C21.14 10.69 20.78 10.15 20.47 9.44ZM28.32 7.70C28.32 6.56 28.69 5.62 29.41 4.89C30.14 4.15 31.06 3.78 32.17 3.78C33.28 3.78 34.20 4.15 34.93 4.89C35.66 5.62 36.02 6.56 36.02 7.70C36.02 8.84 35.66 9.78 34.93 10.51C34.20 11.25 33.28 11.62 32.17 11.62C31.06 11.62 30.14 11.25 29.41 10.51C28.69 9.78 28.32 8.84 28.32 7.70ZM27.13 7.70C27.13 9.16 27.61 10.36 28.57 11.31C29.54 12.26 30.73 12.74 32.17 12.74C33.61 12.74 34.81 12.26 35.77 11.31C36.73 10.36 37.21 9.16 37.21 7.70C37.21 6.24 36.73 5.04 35.77 4.09C34.81 3.14 33.61 2.66 32.17 2.66C30.73 2.66 29.54 3.14 28.57 4.09C27.61 5.04 27.13 6.24 27.13 7.70ZM48.13 7.63L43.79 7.63L43.79 8.75L46.83 8.75C46.64 9.62 46.25 10.31 45.66 10.84C45.07 11.36 44.31 11.62 43.37 11.62C42.26 11.62 41.34 11.25 40.61 10.51C39.89 9.78 39.52 8.84 39.52 7.70C39.52 6.56 39.89 5.62 40.61 4.89C41.34 4.15 42.26 3.78 43.37 3.78C44.10 3.78 44.75 3.94 45.33 4.25C45.91 4.56 46.36 4.98 46.68 5.52L47.52 4.75C47.10 4.07 46.53 3.56 45.81 3.20C45.09 2.84 44.28 2.66 43.37 2.66C41.93 2.66 40.74 3.14 39.77 4.09C38.81 5.04 38.33 6.24 38.33 7.70C38.33 9.16 38.81 10.36 39.77 11.31C40.74 12.26 41.93 12.74 43.37 12.74C44.83 12.74 45.99 12.26 46.84 11.29C47.70 10.32 48.13 9.10 48.13 7.63ZM57.76 5.98L58.49 12.60L59.68 12.60L58.49 2.31L54.57 9.41L50.65 2.31L49.46 12.60L50.65 12.60L51.38 5.98L54.57 11.69Z"></path></g> <!----> <g data-v-1084b650="" id="5b46c1d1-ba83-e7fe-3900-9775f85e5a90" stroke="none" fill="#B500D0" transform="matrix(0.2432369589805603,0,0,0.2432369589805603,35.87831497192383,109.20916748046875)"><svg xmlns="http://www.w3.org/2000/svg" xmlns:xlink="http://www.w3.org/1999/xlink" version="1.1" x="0px" y="0px" viewBox="0 0 100 100" enable-background="new 0 0 100 100" xml:space="preserve"><g><path d="M44.5,65.2c-14.5,0-28.4-6.1-39-17.2c-0.6-0.6-0.6-1.6,0-2.1c0.6-0.6,1.6-0.6,2.1,0   c10,10.5,23.1,16.2,36.8,16.2c20,0,38.1-12,47.2-31.3c0.4-0.8,1.3-1.1,2-0.7c0.8,0.4,1.1,1.3,0.7,2c-4.6,9.8-11.6,18-20.2,23.9   C65.3,62,55,65.2,44.5,65.2z"></path></g><g><path fill="#000000" d="M6.6,48.5c-0.8,0-1.5-0.7-1.5-1.5v-0.3c0-0.8,0.7-1.5,1.5-1.5s1.5,0.7,1.5,1.5V47   C8.1,47.8,7.4,48.5,6.6,48.5z"></path></g><g><path fill="#000000" d="M93,63.9c-0.6,0-1.1-0.3-1.4-0.9C82.6,44,64.5,32.1,44.5,32.1c-14,0-27.1,5.5-36.8,15.6   c-0.6,0.6-1.5,0.6-2.1,0c-0.6-0.6-0.6-1.5,0-2.1c10.3-10.6,24.2-16.5,39-16.5c10.5,0,20.8,3.1,29.7,9.1   c8.6,5.8,15.6,13.9,20.2,23.6c0.4,0.7,0,1.6-0.7,2C93.5,63.8,93.3,63.9,93,63.9z"></path></g><g><path fill="#000000" d="M34.3,82c-0.2,0-0.3,0-0.5-0.1l-8.1-2.6c-0.8-0.3-1.2-1.1-1-1.9c0.3-0.8,1.1-1.2,1.9-1l6.6,2.1l4.6-15.3   c0.2-0.8,1.1-1.2,1.9-1c0.8,0.2,1.2,1.1,1,1.9l-5,16.7c-0.1,0.4-0.4,0.7-0.7,0.9C34.8,82,34.5,82,34.3,82z"></path></g><g><path fill="#000000" d="M61,82.7c-0.1,0-0.1,0-0.2,0c-0.8-0.1-1.4-0.9-1.3-1.7l0.8-6.4c-3.1-0.3-5.5-1.4-7.2-3.3   c-3-3.5-2.5-8.2-2.4-8.4c0.1-0.8,0.9-1.4,1.7-1.3c0.8,0.1,1.4,0.9,1.3,1.7c0,0-0.4,3.7,1.7,6.1c1.4,1.6,3.6,2.4,6.6,2.4   c0.4,0,0.8,0.2,1.1,0.5c0.3,0.3,0.4,0.8,0.4,1.2l-1,8C62.4,82.2,61.7,82.7,61,82.7z"></path></g><g><path fill="#000000" d="M27.6,53c-3.3,0-6-2.7-6-6c0-3.3,2.7-6,6-6s6,2.7,6,6C33.6,50.3,30.9,53,27.6,53z M27.6,44   c-1.7,0-3,1.3-3,3c0,1.7,1.3,3,3,3c1.7,0,3-1.3,3-3C30.6,45.4,29.3,44,27.6,44z"></path></g><g><circle fill="#000000" cx="30.5" cy="47" r="2.9"></circle></g></svg></g></svg>